<svg id="Layer_1" data-name="Layer 1" xmlns="http://www.w3.org/2000/svg" viewBox="0 0 709.67 125.9"><defs><style>.cls-1{fill:#fff;}.cls-2{fill:#f8a14a;}</style></defs><title>Artboard 1</title><path class="cls-1" d="M48.59,31.22V43.7H34.93V77.32c0,3.15.58,5.2,1.57,6.3,2,2.23,5.07,1.74,10.18-.78l1.91,14.58c-2.85,1.6-8.83,2.36-10.91,2.36a54.82,54.82,0,0,1-8.2-.59,19.2,19.2,0,0,1-6.83-2.3A12.22,12.22,0,0,1,18,92a17.33,17.33,0,0,1-1.7-8.27V43.7H5V31.22h11.3V10.86H34.93V31.22Z"/><path class="cls-1" d="M75.51,5.34V40.68h.39A21.68,21.68,0,0,1,85,32.07a24.47,24.47,0,0,1,10.77-2.69,31.63,31.63,0,0,1,12.28,2,18.24,18.24,0,0,1,7.55,5.64,22,22,0,0,1,3.88,8.8,55.07,55.07,0,0,1,1.11,11.5V99.12H101.91V60.77q0-8.4-2.63-12.54T90,44.09q-7.62,0-11,4.53T75.51,63.53V99.12H56.86V5.34Z"/><path class="cls-1" d="M132.81,20.71V5.34h18.66V20.71Zm18.66,10.51v67.9H132.81V31.22Z"/><path class="cls-1" d="M181.48,31.22v9.46h.39a21.45,21.45,0,0,1,9.19-8.61,26.68,26.68,0,0,1,11.56-2.69,31.6,31.6,0,0,1,12.28,2,18.21,18.21,0,0,1,7.56,5.64,22,22,0,0,1,3.87,8.8,55,55,0,0,1,1.12,11.5V99.12H208.8V60.77q0-8.4-2.63-12.54t-9.33-4.14q-7.62,0-11,4.53T182.4,63.53V99.12H163.75V31.22Z"/><path class="cls-1" d="M258.86,5.34V55.65l23.51-24.43h22.07l-25.61,25,28.5,43H284.74L266.09,68.78l-7.23,7V99.12H240.21V5.34Z"/><path class="cls-1" d="M352.77,56.9a19.57,19.57,0,0,0-2.69-6.83,15.18,15.18,0,0,0-4.93-4.8,14.46,14.46,0,0,0-7.61-1.84,15.2,15.2,0,0,0-7.75,1.84,14.64,14.64,0,0,0-5.06,4.86A21.6,21.6,0,0,0,322,57a37.34,37.34,0,0,0-.85,8.08A34.25,34.25,0,0,0,322,73,21.35,21.35,0,0,0,325,80a16.28,16.28,0,0,0,5.13,5,13.83,13.83,0,0,0,7.42,1.91,14.76,14.76,0,0,0,7.68-1.84,14,14,0,0,0,4.93-4.93,22,22,0,0,0,2.62-7,41.11,41.11,0,0,0,.79-8.15A40,40,0,0,0,352.77,56.9Zm.79,33.55a19.27,19.27,0,0,1-8.6,8,28.62,28.62,0,0,1-12,2.43,29,29,0,0,1-13.4-3,26.88,26.88,0,0,1-9.52-8,36.23,36.23,0,0,1-5.65-11.62,48.78,48.78,0,0,1-1.9-13.66,45.85,45.85,0,0,1,1.9-13.2A34.2,34.2,0,0,1,310,40.15a28.23,28.23,0,0,1,9.39-7.81,27.83,27.83,0,0,1,13.14-3A26.7,26.7,0,0,1,344,31.94a20.09,20.09,0,0,1,8.6,7.55h.26V5.34h18.65V99.12H353.82V90.45Z"/><path class="cls-1" d="M424.54,47.11q-3.35-3.68-10.18-3.68a16.3,16.3,0,0,0-7.42,1.51,14.15,14.15,0,0,0-4.73,3.75,13.7,13.7,0,0,0-2.5,4.73,21.59,21.59,0,0,0-.85,4.46H429.2Q427.88,50.79,424.54,47.11ZM403.46,82.84q4.2,4.06,12.08,4.07a16.58,16.58,0,0,0,9.72-2.83c2.71-1.88,4.38-3.87,5-6h16.42q-3.94,12.21-12.08,17.47t-19.71,5.25a38.69,38.69,0,0,1-14.44-2.56A30.16,30.16,0,0,1,389.53,91a32.89,32.89,0,0,1-6.89-11.3,41.28,41.28,0,0,1-2.43-14.44,39.5,39.5,0,0,1,2.5-14.19,32.82,32.82,0,0,1,18.05-18.91,35.18,35.18,0,0,1,14.12-2.76A32.34,32.34,0,0,1,430,32.73a30.08,30.08,0,0,1,10.57,9,36.93,36.93,0,0,1,6,12.87,48.09,48.09,0,0,1,1.31,15.1h-49Q399.25,78.76,403.46,82.84Z"/><path class="cls-1" d="M497.58,47.11q-3.36-3.68-10.18-3.68A16.3,16.3,0,0,0,480,44.94a14.15,14.15,0,0,0-4.73,3.75,13.7,13.7,0,0,0-2.5,4.73,21.59,21.59,0,0,0-.85,4.46h30.34Q500.92,50.79,497.58,47.11ZM476.5,82.84q4.2,4.06,12.08,4.07a16.6,16.6,0,0,0,9.72-2.83c2.71-1.88,4.38-3.87,5-6h16.42q-3.94,12.21-12.08,17.47t-19.71,5.25a38.66,38.66,0,0,1-14.44-2.56A30.08,30.08,0,0,1,462.57,91a32.89,32.89,0,0,1-6.89-11.3,41.28,41.28,0,0,1-2.43-14.44,39.71,39.71,0,0,1,2.49-14.19A32.88,32.88,0,0,1,473.8,32.14a35.18,35.18,0,0,1,14.12-2.76A32.34,32.34,0,0,1,503,32.73a30.08,30.08,0,0,1,10.57,9,36.93,36.93,0,0,1,6,12.87,48.09,48.09,0,0,1,1.31,15.1h-49Q472.29,78.76,476.5,82.84Z"/><path class="cls-1" d="M571.37,85.07a15.05,15.05,0,0,0,5-4.79,20,20,0,0,0,2.69-6.9,41.2,41.2,0,0,0,.79-8,37.57,37.57,0,0,0-.86-8,21.43,21.43,0,0,0-2.82-7,15.66,15.66,0,0,0-5.06-5,14.11,14.11,0,0,0-7.55-1.91,14.34,14.34,0,0,0-7.68,1.91,15.24,15.24,0,0,0-5,4.92,20.64,20.64,0,0,0-2.7,7,42,42,0,0,0-.79,8.15,37.71,37.71,0,0,0,.86,8,20.71,20.71,0,0,0,2.76,6.9,15.92,15.92,0,0,0,20.36,4.79ZM547.13,31.22v8.67h.26a20.51,20.51,0,0,1,8.67-8,26.51,26.51,0,0,1,11.56-2.5,29.45,29.45,0,0,1,13.79,3,28.66,28.66,0,0,1,9.59,8A34,34,0,0,1,596.65,52a51.84,51.84,0,0,1,1.84,13.85A46.92,46.92,0,0,1,596.65,79a33.63,33.63,0,0,1-5.58,11.16,27.66,27.66,0,0,1-9.33,7.75,28,28,0,0,1-13.07,2.89,26.38,26.38,0,0,1-11.62-2.56,22,22,0,0,1-8.74-7.55h-.26V122.9H529.4V31.22Z"/><path class="cls-1" d="M626.44,5.34V99.12H607.79V5.34Z"/><path class="cls-1" d="M668.2,119.35q-5.38,3.54-15,3.55c-1.93,0-3.83-.07-5.71-.2s-3.79-.29-5.72-.46V106.87l5.39.53a39.15,39.15,0,0,0,5.52.13,7.27,7.27,0,0,0,5.45-2.89,9.31,9.31,0,0,0,1.77-5.52,11.13,11.13,0,0,0-.79-4.2l-23.77-63.7H655.2l15.37,46.49h.26l14.84-46.49H705l-28.37,76.31Q673.58,115.81,668.2,119.35Z"/><path class="cls-2" d="M132.81,20.71V5.34h18.66V20.71Z"/></svg>